<svg width="68" height="64" viewBox="0 0 68 64" fill="none" xmlns="http://www.w3.org/2000/svg">
    <path fill="#000" fill-rule="evenodd" clip-rule="evenodd" d="M20 23.9597C20 23.7228 20.093 23.4956 20.2585 23.328C20.424 23.1605 20.6485 23.0664 20.8826 23.0664H21.7653C25.6515 23.0664 28.5214 25.2816 30.3697 27.3868C31.1116 28.2374 31.7768 29.1535 32.3576 30.1239C32.9378 29.1531 33.6031 28.237 34.3455 27.3868C36.1945 25.2816 39.0631 23.0664 42.9506 23.0664V24.853C39.7764 24.853 37.3518 26.6575 35.6662 28.5727C34.7566 29.6154 33.9754 30.766 33.3397 31.9991C33.975 33.2325 34.7557 34.3833 35.6649 35.4263C37.3511 37.3415 39.7804 39.146 42.9506 39.146V40.9319C39.0644 40.9319 36.1945 38.7167 34.3462 36.6115C33.6039 35.7613 32.9385 34.8452 32.3583 33.8744C31.7781 34.8452 31.1128 35.7613 30.3704 36.6115C28.5214 38.718 25.6528 40.9319 21.7653 40.9319H20.8826C20.6485 40.9319 20.424 40.8378 20.2585 40.6703C20.093 40.5027 20 40.2755 20 40.0386C20 39.8017 20.093 39.5745 20.2585 39.407C20.424 39.2395 20.6485 39.1453 20.8826 39.1453H21.7653C24.9395 39.1453 27.3641 37.3408 29.0497 35.4256C29.9593 34.3829 30.7405 33.2323 31.3762 31.9991C30.7409 30.7658 29.9602 29.615 29.051 28.572C27.3654 26.6575 24.9362 24.853 21.7653 24.853H20.8826C20.6485 24.853 20.424 24.7588 20.2585 24.5913C20.093 24.4238 20 24.1966 20 23.9597V23.9597Z" />
    <path fill="#000" d="M42.9507 27.4723V20.4474C42.9505 20.3624 42.9744 20.2791 43.0194 20.2073C43.0644 20.1355 43.1288 20.0782 43.2049 20.0421C43.281 20.0061 43.3657 19.9928 43.449 20.0037C43.5323 20.0147 43.6108 20.0495 43.6752 20.1041L47.8414 23.6166C47.8911 23.6585 47.931 23.7109 47.9584 23.7702C47.9859 23.8295 48.0001 23.8941 48.0001 23.9595C48.0001 24.025 47.9859 24.0896 47.9584 24.1489C47.931 24.2081 47.8911 24.2606 47.8414 24.3025L43.6752 27.8156C43.6108 27.8702 43.5323 27.905 43.449 27.916C43.3657 27.927 43.281 27.9137 43.2049 27.8776C43.1288 27.8415 43.0644 27.7842 43.0194 27.7124C42.9744 27.6407 42.9505 27.5573 42.9507 27.4723ZM42.9507 43.5526V36.5277C42.9505 36.4427 42.9744 36.3593 43.0194 36.2876C43.0644 36.2158 43.1288 36.1585 43.2049 36.1224C43.281 36.0863 43.3657 36.073 43.449 36.084C43.5323 36.095 43.6108 36.1298 43.6752 36.1844L47.8414 39.6968C47.8911 39.7387 47.931 39.7912 47.9584 39.8505C47.9859 39.9097 48.0001 39.9744 48.0001 40.0398C48.0001 40.1052 47.9859 40.1699 47.9584 40.2291C47.931 40.2884 47.8911 40.3409 47.8414 40.3828L43.6752 43.8959C43.6108 43.9505 43.5323 43.9853 43.449 43.9963C43.3657 44.0072 43.281 43.9939 43.2049 43.9579C43.1288 43.9218 43.0644 43.8645 43.0194 43.7927C42.9744 43.7209 42.9505 43.6376 42.9507 43.5526Z" />
</svg>
