<svg width="68" height="64" viewBox="0 0 68 64" fill="none" xmlns="http://www.w3.org/2000/svg">
    <path fill="#000" d="M25.7942 21.0907C25.7942 20.9474 25.7692 20.8056 25.7207 20.6733C25.6722 20.541 25.601 20.4207 25.5114 20.3194C25.4218 20.2182 25.3153 20.1378 25.1982 20.083C25.0811 20.0282 24.9556 20 24.8288 20C24.702 20 24.5765 20.0282 24.4594 20.083C24.3422 20.1378 24.2358 20.2182 24.1462 20.3194C24.0565 20.4207 23.9854 20.541 23.9369 20.6733C23.8884 20.8056 23.8634 20.9474 23.8634 21.0907V40.2733L21.6524 37.7713C21.4711 37.5661 21.2251 37.4507 20.9684 37.4504C20.7118 37.4502 20.4656 37.5651 20.284 37.77C20.1024 37.9748 20.0002 38.2527 20 38.5427C19.9998 38.8326 20.1015 39.1108 20.2828 39.316L24.1449 43.6766L24.1585 43.6919C24.3397 43.8917 24.5836 44.0025 24.8368 44C25.0901 43.9975 25.3322 43.8819 25.5103 43.6786L29.3724 39.3153C29.5537 39.1107 29.6556 38.8332 29.6558 38.5437C29.656 38.2542 29.5543 37.9765 29.3733 37.7716C29.1922 37.5668 28.9465 37.4516 28.6903 37.4514C28.4341 37.4512 28.1883 37.5661 28.0069 37.7706L25.7942 40.2726V21.0907ZM33.5183 22.1813C33.2623 22.1813 33.0167 22.0664 32.8357 21.8619C32.6546 21.6573 32.5529 21.3799 32.5529 21.0907C32.5529 20.8014 32.6546 20.524 32.8357 20.3194C33.0167 20.1149 33.2623 20 33.5183 20H35.4484C35.7045 20 35.95 20.1149 36.1311 20.3194C36.3121 20.524 36.4138 20.8014 36.4138 21.0907C36.4138 21.3799 36.3121 21.6573 36.1311 21.8619C35.95 22.0664 35.7045 22.1813 35.4484 22.1813H33.5183ZM33.5183 28.726C33.2623 28.726 33.0167 28.6111 32.8357 28.4065C32.6546 28.202 32.5529 27.9246 32.5529 27.6353C32.5529 27.3461 32.6546 27.0686 32.8357 26.8641C33.0167 26.6596 33.2623 26.5447 33.5183 26.5447H39.3111C39.5671 26.5447 39.8127 26.6596 39.9937 26.8641C40.1747 27.0686 40.2765 27.3461 40.2765 27.6353C40.2765 27.9246 40.1747 28.202 39.9937 28.4065C39.8127 28.6111 39.5671 28.726 39.3111 28.726H33.5183ZM33.5183 35.2706C33.3915 35.2706 33.266 35.2424 33.1489 35.1876C33.0317 35.1328 32.9253 35.0525 32.8357 34.9512C32.746 34.8499 32.6749 34.7297 32.6264 34.5973C32.5779 34.465 32.5529 34.3232 32.5529 34.18C32.5529 34.0367 32.5779 33.8949 32.6264 33.7626C32.6749 33.6303 32.746 33.51 32.8357 33.4087C32.9253 33.3075 33.0317 33.2271 33.1489 33.1723C33.266 33.1175 33.3915 33.0893 33.5183 33.0893H43.1726C43.2993 33.0893 43.4249 33.1175 43.542 33.1723C43.6591 33.2271 43.7655 33.3075 43.8552 33.4087C43.9448 33.51 44.0159 33.6303 44.0644 33.7626C44.113 33.8949 44.1379 34.0367 44.1379 34.18C44.1379 34.3232 44.113 34.465 44.0644 34.5973C44.0159 34.7297 43.9448 34.8499 43.8552 34.9512C43.7655 35.0525 43.6591 35.1328 43.542 35.1876C43.4249 35.2424 43.2993 35.2706 43.1726 35.2706H33.5183ZM32.5529 40.7246C32.5529 41.0139 32.6546 41.2913 32.8357 41.4958C33.0167 41.7004 33.2623 41.8153 33.5183 41.8153H47.0346C47.2907 41.8153 47.5362 41.7004 47.7173 41.4958C47.8983 41.2913 48 41.0139 48 40.7246C48 40.4354 47.8983 40.1579 47.7173 39.9534C47.5362 39.7489 47.2907 39.6339 47.0346 39.6339H33.5177C33.3909 39.6339 33.2653 39.6622 33.1481 39.717C33.031 39.7719 32.9245 39.8523 32.8349 39.9536C32.7452 40.055 32.6741 40.1753 32.6256 40.3077C32.5772 40.4401 32.5522 40.582 32.5523 40.7253L32.5529 40.7246Z" />
</svg>

